<svg xmlns="http://www.w3.org/2000/svg" width="800" height="420" viewBox="0 0 800 420" role="img" aria-label="Vibe Code 1000 hub preview">
  <defs>
    <linearGradient id="bg" x1="0%" y1="0%" x2="100%" y2="100%">
      <stop offset="0%" stop-color="#1e2a3d"/>
      <stop offset="100%" stop-color="#0a0d12"/>
    </linearGradient>
    <linearGradient id="accent" x1="0%" y1="0%" x2="100%" y2="0%">
      <stop offset="0%" stop-color="#e8a87c"/>
      <stop offset="100%" stop-color="#5eead4"/>
    </linearGradient>
  </defs>
  <rect width="800" height="420" fill="url(#bg)" rx="12"/>
  <text x="400" y="48" fill="#f2efe8" font-family="Georgia, serif" font-size="28" text-anchor="middle" font-weight="600">Vibe Code 1000</text>
  <text x="400" y="72" fill="#9ca3af" font-family="system-ui, sans-serif" font-size="13" text-anchor="middle">100 / 1000 · Generation engine gallery</text>
  <rect x="40" y="92" width="720" height="8" fill="#ffffff14" rx="4"/>
  <rect x="40" y="92" width="72" height="8" fill="url(#accent)" rx="4"/>
  <rect x="40" y="118" width="720" height="56" fill="#ffffff0c" rx="8" stroke="#ffffff18"/>
  <text x="56" y="142" fill="#e8a87c" font-family="system-ui" font-size="12">P Featured</text>
  <rect x="56" y="152" width="100" height="14" fill="#ffffff20" rx="4"/>
  <rect x="168" y="152" width="100" height="14" fill="#ffffff20" rx="4"/>
  <rect x="280" y="152" width="100" height="14" fill="#ffffff20" rx="4"/>
  <rect x="40" y="190" width="200" height="28" fill="#00000055" rx="14" stroke="#ffffff18"/>
  <rect x="260" y="196" width="56" height="16" fill="#e8a87c33" rx="8"/>
  <rect x="324" y="196" width="48" height="16" fill="#ffffff12" rx="8"/>
  <rect x="380" y="196" width="52" height="16" fill="#ffffff12" rx="8"/>
  <rect x="40" y="236" width="175" height="72" fill="#ffffff08" rx="10" stroke="#ffffff12"/>
  <rect x="225" y="236" width="175" height="72" fill="#ffffff08" rx="10" stroke="#ffffff12"/>
  <rect x="410" y="236" width="175" height="72" fill="#ffffff08" rx="10" stroke="#ffffff12"/>
  <rect x="595" y="236" width="165" height="72" fill="#ffffff08" rx="10" stroke="#ffffff12"/>
  <text x="400" y="390" fill="#5eead4" font-family="system-ui" font-size="11" text-anchor="middle">websites-eosin-delta.vercel.app</text>
</svg>
